<svg xmlns="http://www.w3.org/2000/svg" width="423.70562500000005" height="100.0"><line x1="30.0" x2="393.70562500000005" y1="25.0" y2="25.0" stroke="#1967d2" stroke-width="1" /><line x1="30.0" x2="393.70562500000005" y1="75.0" y2="75.0" stroke="#1967d2" stroke-width="1" /><line x1="189.5217578125" x2="189.5217578125" y1="25.0" y2="75.0" stroke="black" stroke-width="3" /><line x1="249.5217578125" x2="249.5217578125" y1="25.0" y2="75.0" stroke="black" stroke-width="3" /><rect x="10.0" y="5.0" width="40" height="40" stroke="black" fill="white" stroke-width="0" /><text x="30.0" y="25.0" dominant-baseline="middle" text-anchor="middle" font-size="14px" font-family="Arial">lcu0: </text><rect x="10.0" y="55.0" width="40" height="40" stroke="black" fill="white" stroke-width="0" /><text x="30.0" y="75.0" dominant-baseline="middle" text-anchor="middle" font-size="14px" font-family="Arial">lcu1: </text><rect x="70.0" y="5.0" width="79.5217578125" height="40" stroke="black" fill="white" stroke-width="1" /><text x="109.76087890625" y="25.0" dominant-baseline="middle" text-anchor="middle" font-size="14px" font-family="Arial">Ry(0.447π)</text><rect x="169.5217578125" y="5.0" width="40" height="40" stroke="black" fill="white" stroke-width="1" /><text x="189.5217578125" y="25.0" dominant-baseline="middle" text-anchor="middle" font-size="14px" font-family="Arial">(0)</text><rect x="169.5217578125" y="55.0" width="40" height="40" stroke="black" fill="white" stroke-width="1" /><text x="189.5217578125" y="75.0" dominant-baseline="middle" text-anchor="middle" font-size="14px" font-family="Arial">U0</text><circle cx="249.5217578125" cy="25.0" r="10.0" /><rect x="229.5217578125" y="55.0" width="40" height="40" stroke="black" fill="white" stroke-width="1" /><text x="249.5217578125" y="75.0" dominant-baseline="middle" text-anchor="middle" font-size="14px" font-family="Arial">U1</text><rect x="289.5217578125" y="5.0" width="84.18386718750001" height="40" stroke="black" fill="white" stroke-width="1" /><text x="331.61369140625004" y="25.0" dominant-baseline="middle" text-anchor="middle" font-size="14px" font-family="Arial">Ry(-0.447π)</text></svg>